<svg width="31" height="32" viewBox="0 0 31 32" fill="none" xmlns="http://www.w3.org/2000/svg">
<g clip-path="url(#clip0_78_334)">
<path d="M24.5799 10.9981C24.5799 5.79105 20.252 1.57457 15.0014 1.77074C10.2351 1.96933 6.34801 5.81285 6.12762 10.5815C5.90723 15.2606 9.2034 19.2155 13.5967 20.0704V22.8895H9.77497C9.29059 22.8895 8.89583 23.2843 8.89583 23.7686V25.5269C8.89583 26.0113 9.29059 26.4061 9.77497 26.4061H13.5967V29.5182C13.5967 30.0025 13.9915 30.3973 14.4758 30.3973H16.2341C16.7185 30.3973 17.1132 30.0025 17.1132 29.5182V26.4061H20.935C21.4193 26.4061 21.8141 26.0113 21.8141 25.5269V23.7686C21.8141 23.2843 21.4193 22.8895 20.935 22.8895H17.1108V20.0486C21.3733 19.2373 24.5799 15.5028 24.5799 10.9981ZM9.75317 10.8988C9.79919 7.01894 12.8459 5.41082 15.355 5.46168C18.4477 5.52465 20.9471 7.70675 20.8914 10.9981C20.8381 14.0521 18.409 16.5345 15.355 16.5345C12.301 16.5345 9.712 14.3257 9.75317 10.8988Z" fill="#0259A7"/>
<path d="M24.5818 10.2061C24.5818 4.99906 20.254 0.782575 15.0033 0.978747C10.2371 1.17734 6.34755 5.02328 6.12958 9.78953C5.90919 14.4686 9.20294 17.9391 13.5986 18.7965V22.0999H9.77693C9.29255 22.0999 8.89779 22.4947 8.89779 22.9791V24.4952C8.89779 24.9795 9.31193 25.258 9.79388 25.258H13.6156L13.5986 28.4864C13.5986 28.9708 13.9934 29.3655 14.4778 29.3655H16.2361C16.7204 29.3655 17.1152 28.9708 17.1152 28.4864L17.1322 25.258H20.9539C21.4383 25.258 21.8161 24.9771 21.8161 24.4952V22.9791C21.8161 22.4947 21.4213 22.0999 20.9369 22.0999H17.1128V18.7723C21.3753 17.9609 24.5818 14.7108 24.5818 10.2061ZM9.75271 10.1068C9.75029 6.49578 12.1746 4.31851 15.3279 4.31851C18.8953 4.31851 20.9805 7.12062 20.9151 10.3659C20.857 13.4199 18.4085 15.7425 15.3545 15.7425C12.3005 15.7425 9.75513 13.5337 9.75271 10.1068Z" fill="#57C7F3"/>
<path opacity="0.3" d="M8.95897 4.66008C9.93499 3.47336 11.7248 2.15102 13.6962 1.92094C14.183 1.85797 14.6673 1.8604 15.0766 2.03477C15.3794 2.16071 15.6264 2.4804 15.4351 2.80008C15.2898 3.0568 14.6746 3.21665 14.3864 3.29172C13.3716 3.49758 12.5337 3.7543 11.858 4.13938C10.9594 4.65282 10.0827 5.6143 9.68069 6.25126C8.91538 7.45977 8.431 8.34133 7.88366 7.89329C7.35085 7.49125 7.96116 5.87102 8.95897 4.66008ZM11.7151 22.6958C11.7151 22.5166 11.6061 22.456 10.957 22.4972C10.4169 22.5166 9.78725 22.5965 9.62499 22.7975C9.46272 23.0179 9.42639 23.4563 9.40944 23.9745C9.40944 24.3548 9.40944 24.6938 9.58866 24.6938C9.84054 24.6938 9.84054 24.0763 10.0222 23.7372C10.383 23.0954 11.7151 22.9356 11.7151 22.6958ZM14.2023 26.6773C14.0037 26.6773 13.9383 26.7888 13.9819 27.4645C14.0037 28.0263 14.0473 28.4938 14.2677 28.6633C14.5099 28.8328 15.0379 28.8595 15.607 28.8788C16.0236 28.8788 16.2173 28.8885 16.2173 28.702C16.2173 28.4405 15.8516 28.6391 15.1929 28.1111C14.5366 27.5856 14.4445 26.6773 14.2023 26.6773Z" fill="white"/>
</g>
<defs>
<clipPath id="clip0_78_334">
<rect width="31" height="31" fill="white" transform="translate(0 0.218262)"/>
</clipPath>
</defs>
</svg>
