<svg width="30" height="30" viewBox="0 0 30 30" fill="none" xmlns="http://www.w3.org/2000/svg">
<g clip-path="url(#clip0_78_328)">
<path d="M24.2772 1.57178H17.4419C16.9366 1.57178 16.522 1.98639 16.522 2.49162V4.33357C16.522 4.83881 16.9366 5.25342 17.4419 5.25342H21.1258C21.3319 5.25342 21.4248 5.50717 21.2866 5.64537L16.2456 10.4372C12.3805 7.81357 6.99506 8.32107 3.70537 11.9325C0.300137 15.639 0.34545 21.4141 3.77334 25.0731C7.52522 29.0538 13.8055 29.124 17.648 25.2793C20.9853 21.942 21.375 16.7877 18.8216 13.0381L23.8626 8.24631C24.0008 8.10811 24.2546 8.201 24.2546 8.40717V12.0911C24.2546 12.5963 24.6692 13.0109 25.1744 13.0109H27.0164C27.5216 13.0109 27.9362 12.5963 27.9362 12.0911V2.49162C27.9362 1.98639 27.5216 1.57178 27.0164 1.57178H24.2772ZM14.9338 22.5401C12.6795 24.7944 8.99787 24.7944 6.71865 22.5401C4.43943 20.2858 4.46436 16.6042 6.71865 14.3476C8.97295 12.0911 12.6546 12.0933 14.9338 14.3476C17.213 16.6019 17.1881 20.2858 14.9338 22.5401Z" fill="#0259A7"/>
<path d="M24.2802 0.885254H17.4448C16.9396 0.885254 16.5249 1.29986 16.5249 1.8051V3.41143C16.5249 3.91666 16.9396 4.33127 17.4448 4.33127H21.1287C21.3349 4.33127 21.643 4.62127 21.2896 4.95658L16.2485 9.75064C12.3834 7.12705 6.99799 7.63455 3.7083 11.246C0.303067 14.9503 0.348379 20.492 3.77627 24.151C7.52814 28.1317 13.8085 28.2019 17.651 24.3571C20.9882 21.0199 21.1808 15.852 18.6274 12.1001L23.7228 7.28791C24.0287 7.01604 24.3028 7.42838 24.2575 7.71838V11.1667C24.2575 11.6719 24.6721 12.0865 25.1774 12.0865H27.0193C27.5246 12.0865 27.9392 11.6719 27.9392 11.1667V1.80736C27.9392 1.30213 27.5246 0.88752 27.0193 0.88752C27.042 0.885254 24.2802 0.885254 24.2802 0.885254ZM14.9367 21.8559C12.6824 24.1102 9.0008 24.1102 6.72158 21.8559C4.44236 19.6016 4.46729 15.6843 6.72158 13.43C8.97588 11.1757 12.6575 11.1757 14.9367 13.43C17.216 15.6843 17.191 19.5993 14.9367 21.8559Z" fill="#57C7F3"/>
<path opacity="0.3" d="M19.6309 1.66908C19.6309 1.4629 19.4927 1.39267 18.6635 1.43798C17.9725 1.46064 17.6508 1.55353 17.4446 1.78236C17.2384 2.01119 17.1908 2.54134 17.1682 3.13947C17.1682 3.57673 17.1682 3.96869 17.3993 3.96869C17.721 3.96869 17.721 3.25501 17.9521 2.86306C18.412 2.10634 19.6309 1.94548 19.6309 1.66908ZM24.8215 9.20454C24.6153 9.20454 24.5451 9.34275 24.5904 10.172C24.613 10.863 24.7059 11.1847 24.9348 11.3909C25.1636 11.597 25.6937 11.6446 26.2919 11.6673C26.7291 11.6673 27.1211 11.6673 27.1211 11.4362C27.1211 11.1145 26.4074 11.1145 26.0155 10.8834C25.2587 10.4257 25.0979 9.20454 24.8215 9.20454ZM3.97093 12.1544C4.8364 10.8403 6.67382 9.4447 8.67663 9.10712C9.1728 9.0165 9.66671 8.99384 10.0949 9.15244C10.4098 9.26572 10.6794 9.58064 10.5005 9.91822C10.3645 10.1878 9.5421 10.1606 9.24757 10.249C8.21897 10.5118 7.37616 10.8177 6.70554 11.2481C5.81288 11.8213 4.96554 12.8499 4.58491 13.5228C3.86218 14.7984 3.61749 15.9493 3.03296 15.5211C2.47108 15.136 3.10546 13.4707 3.97093 12.1544Z" fill="white"/>
</g>
<defs>
<clipPath id="clip0_78_328">
<rect width="29" height="29" fill="white" transform="translate(0.103516 0.00830078)"/>
</clipPath>
</defs>
</svg>
