<svg width="26" height="27" viewBox="0 0 26 27" fill="none" xmlns="http://www.w3.org/2000/svg">
<circle cx="12.9998" cy="14.4588" r="9.39845" stroke="#0259A7" stroke-width="5.68119"/>
<circle cx="12.9998" cy="12.8797" r="9.39845" stroke="#57C7F3" stroke-width="5.68119"/>
<path opacity="0.3" d="M4.14222 5.50733C5.52845 3.82184 8.07045 1.94372 10.8704 1.61694C11.5618 1.5275 12.2498 1.53094 12.8311 1.77861C13.2611 1.95748 13.6119 2.41153 13.3402 2.86558C13.1338 3.2302 12.2601 3.45722 11.8508 3.56385C10.4095 3.85624 9.21933 4.22085 8.25963 4.76778C6.98348 5.49701 5.73828 6.86261 5.16727 7.76727C4.0803 9.48372 3.39234 10.7358 2.61495 10.0994C1.8582 9.52844 2.72503 7.22722 4.14222 5.50733Z" fill="white"/>
<path opacity="0.3" d="M21.8959 19.9424C20.5096 21.6279 17.9676 23.506 15.1677 23.8328C14.4763 23.9222 13.7883 23.9188 13.207 23.6711C12.777 23.4922 12.4262 23.0382 12.6979 22.5841C12.9043 22.2195 13.778 21.9925 14.1873 21.8859C15.6286 21.5935 16.8188 21.2289 17.7785 20.6819C19.0546 19.9527 20.2998 18.5871 20.8708 17.6824C21.9578 15.966 22.6457 14.7139 23.4231 15.3503C24.1799 15.9213 23.3131 18.2225 21.8959 19.9424Z" fill="white"/>
</svg>
